
        <svg xmlns="http://www.w3.org/2000/svg" xmlns:xlink="http://www.w3.org/1999/xlink" version="1.1" width="3162.105992379633" 
        height="2066.8514028403183" viewBox="0 0 3162.105992379633 2066.8514028403183">
			<rect fill="#27323a" width="3162.105992379633" height="2066.8514028403183"/>
			<g transform="scale(8.105299618981642) translate(10, 10)">
				<defs id="SvgjsDefs2919"></defs><g id="SvgjsG2920" featureKey="rootContainer" transform="matrix(1,0,0,1,0,0)" fill="#ffffff"><path xmlns="http://www.w3.org/2000/svg" fill-rule="evenodd" d="M5,65 L185,0 L365, 65 L185, 10 z M5,155 L185,235 L365,150 L185, 225 z"></path></g><g id="SvgjsG2921" featureKey="symbolFeature-0" transform="matrix(0.6080188751220703,0,0,0.6080188751220703,-8.086647101943779,86.95990562220403)" fill="#ffffff"><path xmlns="http://www.w3.org/2000/svg" d="M71.9,27.9c-4.6,0-8.7,1.2-11.4,3.1v-2v-2.4v-7.8v-3.6h-3.4v7l-1.7,1.7V10.2H52v17.2l-1.7,1.7V5h-3.4v24l-1.7-1.7V10.2h-3.4  v13.8l-1.7-1.7v-7h-3.4v3.6v7.8V29v4.8V39c-2.7-5.1-5-9.2-5.6-10.2l-1.4-2.5l-1.5,2.4c-0.6,1-14.9,23.9-14.9,34.4  c0,9.1,7,16.2,16,16.4v3.4v1l0.9,0.5l0,0l17.7,10.1l0,0l0.9,0.5l19.4-11.1v-1v-2.1c1.3,0.2,2.6,0.3,4,0.3c8.3,0,14.9-3.8,14.9-8.7  V36.6C86.8,31.8,80.3,27.9,71.9,27.9z M50.3,90.1V73.7l14.2-8.1v16.3L50.3,90.1z M48.6,70.8l-14.2-8.1l14.2-8.1l14.2,8.1L48.6,70.8z   M57.1,52.9l-1.6,1.6l-3.4-1.9l5-5L57.1,52.9L57.1,52.9z M50.3,33.9l6.8-6.8v5.3l-6.8,6.8V33.9z M50.3,47.5v-3.4l6.8-6.8v5.3  l-6.8,6.8V47.5z M40.1,27.1l6.8,6.8v5.3l-6.8-6.8V27.1z M40.1,37.3l6.8,6.8v3.4v1.9l-6.8-6.8V37.3z M45.1,52.6l-1.7,1  c-0.6-1.5-1.2-3.1-1.9-4.6L45.1,52.6z M16.6,63.2c0-3.9,2.5-10.7,7.1-19.7c2.2-4.2,4.4-8,5.8-10.4c3.2,5.7,8.1,15,10.9,22.2  l-6.5,3.7l-3.8,2.2l-0.9,0.5v1v13.5C22.1,75.9,16.6,70.3,16.6,63.2z M32.6,65.6l14.2,8.1v16.3l-14.2-8.1V65.6z M83.4,72.5  c0,2.5-4.7,5.3-11.4,5.3c-1.4,0-2.8-0.1-4-0.4v-8.5c1.3,0.2,2.6,0.3,4,0.3c4.6,0,8.7-1.2,11.4-3.1V72.5z M83.4,60.5  c0,2.5-4.7,5.3-11.4,5.3c-1.4,0-2.8-0.1-4-0.4v-2.8v-1l-0.9-0.5l0,0l-5.8-3.3l-0.8-0.4v-3.2c2.7,1.9,6.8,3.1,11.4,3.1  c4.6,0,8.7-1.2,11.4-3.1V60.5z M83.4,48.6c0,2.5-4.7,5.3-11.4,5.3s-11.4-2.8-11.4-5.3v-4.5v-0.7v-1.1c2.7,1.9,6.8,3.1,11.4,3.1  c4.6,0,8.7-1.2,11.4-3.1V48.6z M71.9,41.9c-6.7,0-11.4-2.8-11.4-5.3s4.7-5.3,11.4-5.3s11.4,2.8,11.4,5.3S78.7,41.9,71.9,41.9z"></path></g><g id="SvgjsG2922" featureKey="nameFeature-0" transform="matrix(0.7912564277648926,0,0,0.7912564277648926,63.76366185809293,98.43206530205438)" fill="#ffffff"><path d="M1.5625 8.515999999999998 l18.887 0 l0 6.2891 l-12.578 0 l0 6.3086 l9.4336 0 l0 6.2891 l-9.4336 0 l0 6.2891 l0 6.3086 l-6.3086 0 l0 -12.598 l0 -6.2891 l0 -12.598 z M22.79296875 40 l-0.019531 -31.523 l10.234 0 c3.0273 0 6.0156 1.0547 8.1836 3.2227 s3.0469 4.1992 3.0469 7.2266 l0 0.97656 c0 2.3438 -0.66406 4.0625 -1.9922 5.9375 s-2.4414 2.4219 -4.5117 3.2031 l7.1094 10.957 l-7.6953 0 l-8.0469 -12.305 l0 12.305 l-6.3086 0 z M29.08206875 23.633 l4.5117 0.019531 c1.3086 0 1.9727 -0.33203 2.8906 -1.25 s1.25 -1.9727 1.25 -3.2813 c0 -1.2891 -0.33203 -2.1484 -1.25 -3.0859 s-2.5586 -1.2695 -3.8672 -1.2695 l-3.5352 0 l0 8.8672 z M62.8909375 8.359000000000002 c4.375 0 8.125 1.5625 11.25 4.6875 s4.6875 6.875 4.6875 11.25 s-1.5625 8.125 -4.6875 11.23 s-6.875 4.668 -11.25 4.668 s-8.125 -1.5625 -11.23 -4.668 s-4.668 -6.8555 -4.668 -11.23 s1.5625 -8.125 4.668 -11.25 s6.8555 -4.6875 11.23 -4.6875 z M62.8909375 14.707 c-2.6367 0 -4.8828 0.9375 -6.7383 2.8125 s-2.793 4.1211 -2.793 6.7383 c0 2.6367 0.9375 4.8828 2.793 6.7383 s4.1016 2.793 6.7383 2.793 c2.6172 0 4.8633 -0.9375 6.7383 -2.793 s2.8125 -4.1016 2.8125 -6.7383 c0 -2.6172 -0.9375 -4.8633 -2.8125 -6.7383 s-4.1211 -2.8125 -6.7383 -2.8125 z M90.4883125 33.7891 l-0.019531 -0.039063 c1.7383 0 3.1836 -1.4453 3.1836 -3.1836 c0 -1.3477 -0.52734 -2.207 -1.6016 -2.5977 c-2.2656 -0.83984 -1.7188 -0.64453 -3.9258 -1.4063 c-2.3242 -0.80078 -4.4727 -2.3828 -5.918 -4.3555 c-0.85938 -1.1719 -1.2891 -2.6172 -1.2891 -4.3555 c0 -2.6172 0.9375 -4.8633 2.8125 -6.7383 s4.1211 -2.8125 6.7578 -2.8125 c2.6172 0 4.8633 0.9375 6.7383 2.8125 s2.8125 4.1211 2.8125 6.7383 l-6.3477 0 c0 -1.7188 -1.4453 -3.1641 -3.1641 -3.1641 c-1.7383 0 -3.1836 1.4453 -3.1836 3.1836 c0 1.1328 0.44922 1.9922 1.3672 2.5781 c1.875 1.2109 1.6602 0.97656 3.9063 1.6406 c2.4219 0.70313 4.6094 2.207 6.1133 4.1406 c0.87891 1.1328 1.3281 2.5977 1.3281 4.375 c0 2.6367 -0.9375 4.8828 -2.8125 6.7578 s-4.1211 2.8125 -6.7383 2.8125 c-2.6367 0 -4.8828 -0.9375 -6.7578 -2.8125 s-2.8125 -4.1211 -2.8125 -6.7578 l6.3672 0 c0 1.7578 1.4258 3.1836 3.1836 3.1836 z M110.42971875 8.515999999999998 l6.3086 0 l7.8711 0 l0 6.2891 l-7.8711 0 l0 25.195 l-6.3086 0 l0 -25.195 l-7.8711 0 l0 -6.2891 l7.8711 0 z M135.19535 8.613 l-0.019531 0 c4.2188 0 7.7539 3.4961 7.832 7.6758 c0 0.83984 -0.29297 1.8164 -0.54688 2.5977 c3.5938 1.5625 6.8164 5.1172 6.8164 10.098 c0 3.0078 -1.0742 5.5859 -3.2227 7.7344 s-4.7266 3.2227 -7.7344 3.2227 l-10.957 0 l0 -31.328 l7.832 0 z M133.61325 18.633 l1.5625 0 c1.0547 0 1.8945 -0.80078 1.8945 -1.8359 c0 -1.0547 -0.83984 -1.9336 -1.8945 -1.9336 l-1.5625 0 l0 3.7695 z M138.30125 33.6719 c2.5781 0 4.707 -2.1094 4.707 -4.668 c0 -1.3086 -0.46875 -2.4219 -1.3867 -3.3398 s-2.0313 -0.97656 -3.3203 -0.97656 l-4.6875 0 l0 8.9844 l4.6875 0 z M151.640625 40 l0 -31.484 l6.3086 0 l0 31.484 l-6.3086 0 z M168.55471875 8.515999999999998 l6.3086 0 l7.8711 0 l0 6.2891 l-7.8711 0 l0 25.195 l-6.3086 0 l0 -25.195 l-7.8711 0 l0 -6.2891 l7.8711 0 z M185.46875 8.515999999999998 l18.887 0 l0 6.2891 l-12.578 0 l0 6.3086 l9.4336 0 l0 6.2891 l-9.4336 0 l0 6.2891 l12.578 0 l0 6.3086 l-12.578 0 l-6.3086 0 l0 -31.484 z M219.00390625 8.515999999999998 l18.887 0 l0 6.2891 l-12.578 0 l0 6.3086 l9.4336 0 l0 6.2891 l-9.4336 0 l0 6.2891 l0 6.3086 l-6.3086 0 l0 -12.598 l0 -6.2891 l0 -12.598 z M259.198875 8.515999999999998 l6.3477 0 l0 12.656 l0 6.3281 c0 3.4961 -1.2305 6.4844 -3.7109 8.9648 s-5.4688 3.7109 -8.9453 3.7109 c-3.4961 0 -6.4844 -1.2305 -8.9648 -3.7109 s-3.7109 -5.4688 -3.7109 -8.9648 l0 -6.3281 l0 -12.656 l6.3477 0 l0 12.656 l0 5.6641 l0 0.64453 c0 1.7383 0.625 3.2227 1.8555 4.4531 s2.7148 1.8555 4.4531 1.8555 c1.7188 0 3.2031 -0.625 4.4531 -1.8555 s1.875 -2.7148 1.875 -4.4531 l0 -0.64453 l0 -5.6641 l0 -12.656 z M276.13284375 8.515999999999998 l6.3086 0 l7.8711 0 l0 6.2891 l-7.8711 0 l0 25.195 l-6.3086 0 l0 -25.195 l-7.8711 0 l0 -6.2891 l7.8711 0 z M312.011375 8.515999999999998 l6.3477 0 l0 12.656 l0 6.3281 c0 3.4961 -1.2305 6.4844 -3.7109 8.9648 s-5.4688 3.7109 -8.9453 3.7109 c-3.4961 0 -6.4844 -1.2305 -8.9648 -3.7109 s-3.7109 -5.4688 -3.7109 -8.9648 l0 -6.3281 l0 -12.656 l6.3477 0 l0 12.656 l0 5.6641 l0 0.64453 c0 1.7383 0.625 3.2227 1.8555 4.4531 s2.7148 1.8555 4.4531 1.8555 c1.7188 0 3.2031 -0.625 4.4531 -1.8555 s1.875 -2.7148 1.875 -4.4531 l0 -0.64453 l0 -5.6641 l0 -12.656 z M321.46484375 40 l-0.019531 -31.523 l10.234 0 c3.0273 0 6.0156 1.0547 8.1836 3.2227 s3.0469 4.1992 3.0469 7.2266 l0 0.97656 c0 2.3438 -0.66406 4.0625 -1.9922 5.9375 s-2.4414 2.4219 -4.5117 3.2031 l7.1094 10.957 l-7.6953 0 l-8.0469 -12.305 l0 12.305 l-6.3086 0 z M327.75394375 23.633 l4.5117 0.019531 c1.3086 0 1.9727 -0.33203 2.8906 -1.25 s1.25 -1.9727 1.25 -3.2813 c0 -1.2891 -0.33203 -2.1484 -1.25 -3.0859 s-2.5586 -1.2695 -3.8672 -1.2695 l-3.5352 0 l0 8.8672 z M346.4453125 8.515999999999998 l18.887 0 l0 6.2891 l-12.578 0 l0 6.3086 l9.4336 0 l0 6.2891 l-9.4336 0 l0 6.2891 l12.578 0 l0 6.3086 l-12.578 0 l-6.3086 0 l0 -31.484 z M377.61721875 33.7891 l-0.019531 -0.039063 c1.7383 0 3.1836 -1.4453 3.1836 -3.1836 c0 -1.3477 -0.52734 -2.207 -1.6016 -2.5977 c-2.2656 -0.83984 -1.7188 -0.64453 -3.9258 -1.4063 c-2.3242 -0.80078 -4.4727 -2.3828 -5.918 -4.3555 c-0.85938 -1.1719 -1.2891 -2.6172 -1.2891 -4.3555 c0 -2.6172 0.9375 -4.8633 2.8125 -6.7383 s4.1211 -2.8125 6.7578 -2.8125 c2.6172 0 4.8633 0.9375 6.7383 2.8125 s2.8125 4.1211 2.8125 6.7383 l-6.3477 0 c0 -1.7188 -1.4453 -3.1641 -3.1641 -3.1641 c-1.7383 0 -3.1836 1.4453 -3.1836 3.1836 c0 1.1328 0.44922 1.9922 1.3672 2.5781 c1.875 1.2109 1.6602 0.97656 3.9063 1.6406 c2.4219 0.70313 4.6094 2.207 6.1133 4.1406 c0.87891 1.1328 1.3281 2.5977 1.3281 4.375 c0 2.6367 -0.9375 4.8828 -2.8125 6.7578 s-4.1211 2.8125 -6.7383 2.8125 c-2.6367 0 -4.8828 -0.9375 -6.7578 -2.8125 s-2.8125 -4.1211 -2.8125 -6.7578 l6.3672 0 c0 1.7578 1.4258 3.1836 3.1836 3.1836 z"></path></g>
			</g>
		</svg>
	